<svg width="36" height="36" viewBox="0 0 36 36" fill="none" xmlns="http://www.w3.org/2000/svg">
<path d="M24.9752 5.81527V3.55757C24.9752 2.9642 24.4832 2.47214 23.8898 2.47214C23.2964 2.47214 22.8044 2.9642 22.8044 3.55757V5.72844H13.3973V3.55757C13.3973 2.9642 12.9052 2.47214 12.3119 2.47214C11.7185 2.47214 11.2264 2.9642 11.2264 3.55757V5.81527C7.31886 6.17708 5.42297 8.50714 5.13352 11.9661C5.10458 12.3858 5.45192 12.7331 5.85715 12.7331H30.3445C30.7642 12.7331 31.1115 12.3713 31.0681 11.9661C30.7787 8.50714 28.8828 6.17708 24.9752 5.81527Z" fill="white"/>
<path d="M29.6788 14.904H6.52293C5.72694 14.904 5.07568 15.5552 5.07568 16.3512V25.2662C5.07568 29.608 7.24655 32.5024 12.3119 32.5024H23.8898C28.9552 32.5024 31.1261 29.608 31.1261 25.2662V16.3512C31.1261 15.5552 30.4748 14.904 29.6788 14.904ZM14.0631 27.0174C13.9907 27.0753 13.9183 27.1476 13.846 27.1911C13.7591 27.249 13.6723 27.2924 13.5855 27.3213C13.4986 27.3647 13.4118 27.3937 13.325 27.4082C13.2237 27.4226 13.1368 27.4371 13.0355 27.4371C12.8474 27.4371 12.6592 27.3937 12.4856 27.3213C12.2974 27.249 12.1527 27.1476 12.008 27.0174C11.7475 26.7424 11.5883 26.3661 11.5883 25.9899C11.5883 25.6136 11.7475 25.2373 12.008 24.9623C12.1527 24.8321 12.2974 24.7308 12.4856 24.6584C12.7461 24.5426 13.0355 24.5137 13.325 24.5716C13.4118 24.586 13.4986 24.615 13.5855 24.6584C13.6723 24.6873 13.7591 24.7308 13.846 24.7886C13.9183 24.8465 13.9907 24.9044 14.0631 24.9623C14.3236 25.2373 14.4828 25.6136 14.4828 25.9899C14.4828 26.3661 14.3236 26.7424 14.0631 27.0174ZM14.0631 21.952C13.7881 22.2125 13.4118 22.3717 13.0355 22.3717C12.6592 22.3717 12.283 22.2125 12.008 21.952C11.7475 21.6771 11.5883 21.3008 11.5883 20.9245C11.5883 20.5482 11.7475 20.1719 12.008 19.897C12.4132 19.4917 13.05 19.3615 13.5855 19.593C13.7736 19.6654 13.9328 19.7667 14.0631 19.897C14.3236 20.1719 14.4828 20.5482 14.4828 20.9245C14.4828 21.3008 14.3236 21.6771 14.0631 21.952ZM19.1284 27.0174C18.8534 27.2779 18.4772 27.4371 18.1009 27.4371C17.7246 27.4371 17.3483 27.2779 17.0733 27.0174C16.8128 26.7424 16.6536 26.3661 16.6536 25.9899C16.6536 25.6136 16.8128 25.2373 17.0733 24.9623C17.6088 24.4268 18.5929 24.4268 19.1284 24.9623C19.3889 25.2373 19.5481 25.6136 19.5481 25.9899C19.5481 26.3661 19.3889 26.7424 19.1284 27.0174ZM19.1284 21.952C19.0561 22.0099 18.9837 22.0678 18.9113 22.1257C18.8245 22.1836 18.7377 22.227 18.6508 22.256C18.564 22.2994 18.4772 22.3283 18.3903 22.3428C18.289 22.3573 18.2022 22.3717 18.1009 22.3717C17.7246 22.3717 17.3483 22.2125 17.0733 21.952C16.8128 21.6771 16.6536 21.3008 16.6536 20.9245C16.6536 20.5482 16.8128 20.1719 17.0733 19.897C17.2036 19.7667 17.3628 19.6654 17.5509 19.593C18.0864 19.3615 18.7232 19.4917 19.1284 19.897C19.3889 20.1719 19.5481 20.5482 19.5481 20.9245C19.5481 21.3008 19.3889 21.6771 19.1284 21.952ZM24.1938 27.0174C23.9188 27.2779 23.5425 27.4371 23.1662 27.4371C22.7899 27.4371 22.4137 27.2779 22.1387 27.0174C21.8782 26.7424 21.719 26.3661 21.719 25.9899C21.719 25.6136 21.8782 25.2373 22.1387 24.9623C22.6742 24.4268 23.6583 24.4268 24.1938 24.9623C24.4543 25.2373 24.6135 25.6136 24.6135 25.9899C24.6135 26.3661 24.4543 26.7424 24.1938 27.0174ZM24.1938 21.952C24.1214 22.0099 24.049 22.0678 23.9767 22.1257C23.8898 22.1836 23.803 22.227 23.7162 22.256C23.6293 22.2994 23.5425 22.3283 23.4557 22.3428C23.3544 22.3573 23.2531 22.3717 23.1662 22.3717C22.7899 22.3717 22.4137 22.2125 22.1387 21.952C21.8782 21.6771 21.719 21.3008 21.719 20.9245C21.719 20.5482 21.8782 20.1719 22.1387 19.897C22.2834 19.7667 22.4281 19.6654 22.6163 19.593C22.8768 19.4773 23.1662 19.4483 23.4557 19.5062C23.5425 19.5207 23.6293 19.5496 23.7162 19.593C23.803 19.622 23.8898 19.6654 23.9767 19.7233C24.049 19.7812 24.1214 19.8391 24.1938 19.897C24.4543 20.1719 24.6135 20.5482 24.6135 20.9245C24.6135 21.3008 24.4543 21.6771 24.1938 21.952Z" fill="white"/>
</svg>
