<svg width="36" height="36" viewBox="0 0 36 36" fill="none" xmlns="http://www.w3.org/2000/svg">
<path d="M23.6004 3.69613C23.007 3.10276 21.9795 3.50799 21.9795 4.33292V9.38379C21.9795 11.4968 23.7741 13.2479 25.9594 13.2479C27.3343 13.2624 29.2447 13.2624 30.88 13.2624C31.705 13.2624 32.1391 12.2928 31.5602 11.7139C29.4762 9.61535 25.7423 5.83805 23.6004 3.69613Z" fill="white"/>
<path d="M30.4024 15.2452H26.2199C22.7899 15.2452 19.9968 12.452 19.9968 9.02206V4.83953C19.9968 4.04355 19.3455 3.39229 18.5495 3.39229H12.4132C7.95569 3.39229 4.35205 6.28678 4.35205 11.4534V24.276C4.35205 29.4427 7.95569 32.3372 12.4132 32.3372H23.7885C28.246 32.3372 31.8497 29.4427 31.8497 24.276V16.6925C31.8497 15.8965 31.1984 15.2452 30.4024 15.2452ZM17.3772 26.1864H11.5883C10.9949 26.1864 10.5028 25.6943 10.5028 25.1009C10.5028 24.5076 10.9949 24.0155 11.5883 24.0155H17.3772C17.9706 24.0155 18.4627 24.5076 18.4627 25.1009C18.4627 25.6943 17.9706 26.1864 17.3772 26.1864ZM20.2717 20.3974H11.5883C10.9949 20.3974 10.5028 19.9053 10.5028 19.312C10.5028 18.7186 10.9949 18.2265 11.5883 18.2265H20.2717C20.8651 18.2265 21.3572 18.7186 21.3572 19.312C21.3572 19.9053 20.8651 20.3974 20.2717 20.3974Z" fill="white"/>
</svg>
