<svg width="36" height="35" viewBox="0 0 36 35" fill="none" xmlns="http://www.w3.org/2000/svg">
<path d="M30.88 11.5864L21.4006 4.00281C19.5481 2.52662 16.6536 2.51215 14.8156 3.98834L5.33618 11.5864C3.97577 12.6718 3.15084 14.8427 3.44029 16.5504L5.26382 27.4626C5.68352 29.9085 7.95569 31.8333 10.4305 31.8333H25.7713C28.2171 31.8333 30.5327 29.865 30.9524 27.4482L32.7759 16.5359C33.0364 14.8427 32.2115 12.6718 30.88 11.5864ZM19.1863 26.0443C19.1863 26.6377 18.6942 27.1298 18.1009 27.1298C17.5075 27.1298 17.0154 26.6377 17.0154 26.0443V21.7026C17.0154 21.1092 17.5075 20.6172 18.1009 20.6172C18.6942 20.6172 19.1863 21.1092 19.1863 21.7026V26.0443Z" fill="white"/>
</svg>
