<svg width="27" height="27" viewBox="0 0 27 27" fill="none" xmlns="http://www.w3.org/2000/svg">
<g opacity="0.5">
<path d="M21.0379 9.9746C20.6146 9.9746 20.2781 10.3111 20.2781 10.7344V12.4494C20.2781 16.2918 17.152 19.4179 13.3096 19.4179C9.46718 19.4179 6.34114 16.2918 6.34114 12.4494V10.7235C6.34114 10.3002 6.00466 9.96375 5.58134 9.96375C5.15802 9.96375 4.82153 10.3002 4.82153 10.7235V12.4385C4.82153 16.8562 8.21894 20.4924 12.5498 20.8832V23.1952C12.5498 23.6185 12.8863 23.955 13.3096 23.955C13.7329 23.955 14.0694 23.6185 14.0694 23.1952V20.8832C18.3894 20.5033 21.7977 16.8562 21.7977 12.4385V10.7235C21.7868 10.3111 21.4504 9.9746 21.0379 9.9746Z" fill="white"/>
<path d="M13.3096 2.24643C10.6611 2.24643 8.51196 4.39559 8.51196 7.04404V12.6015C8.51196 15.2499 10.6611 17.3991 13.3096 17.3991C15.958 17.3991 18.1072 15.2499 18.1072 12.6015V7.04404C18.1072 4.39559 15.958 2.24643 13.3096 2.24643ZM14.7315 9.79019C14.6555 10.0724 14.4059 10.2569 14.1236 10.2569C14.0694 10.2569 14.0151 10.2461 13.9608 10.2352C13.5375 10.1158 13.0925 10.1158 12.6692 10.2352C12.3218 10.3329 11.9853 10.1267 11.8985 9.79019C11.8008 9.4537 12.0071 9.10636 12.3435 9.01953C12.9839 8.84586 13.6569 8.84586 14.2973 9.01953C14.6229 9.10636 14.8183 9.4537 14.7315 9.79019ZM15.3068 7.68445C15.2091 7.94495 14.9703 8.09691 14.7098 8.09691C14.6338 8.09691 14.5687 8.08606 14.4927 8.06435C13.7329 7.78214 12.8863 7.78214 12.1265 8.06435C11.8008 8.18375 11.4318 8.01008 11.3124 7.68445C11.193 7.35882 11.3667 6.98977 11.6923 6.88123C12.7343 6.50133 13.8849 6.50133 14.9269 6.88123C15.2525 7.00062 15.4262 7.35882 15.3068 7.68445Z" fill="white"/>
</g>
</svg>
