<svg width="36" height="36" viewBox="0 0 36 36" fill="none" xmlns="http://www.w3.org/2000/svg">
<path d="M28.1447 8.17598L20.6624 3.84872C19.2297 3.02379 16.9864 3.02379 15.5537 3.84872L7.99905 8.20493C5.00326 10.2311 4.82959 10.535 4.82959 13.7623V21.6209C4.82959 24.8482 5.00326 25.1666 8.05694 27.2217L15.5392 31.549C16.2628 31.9687 17.189 32.1713 18.1008 32.1713C19.0126 32.1713 19.9388 31.9687 20.648 31.549L28.2026 27.1928C31.1984 25.1666 31.372 24.8627 31.372 21.6353V13.7623C31.372 10.535 31.1984 10.2311 28.1447 8.17598ZM18.1008 22.4024C15.5102 22.4024 13.3973 20.2894 13.3973 17.6988C13.3973 15.1083 15.5102 12.9953 18.1008 12.9953C20.6914 12.9953 22.8044 15.1083 22.8044 17.6988C22.8044 20.2894 20.6914 22.4024 18.1008 22.4024Z" fill="white"/>
</svg>
