<svg width="27" height="27" viewBox="0 0 27 27" fill="none" xmlns="http://www.w3.org/2000/svg">
<g opacity="0.5">
<path d="M12.5383 21.8059C17.9395 21.8059 22.318 17.4274 22.318 12.0262C22.318 6.62497 17.9395 2.24643 12.5383 2.24643C7.13709 2.24643 2.75854 6.62497 2.75854 12.0262C2.75854 17.4274 7.13709 21.8059 12.5383 21.8059Z" fill="white"/>
<path d="M24.4563 20.6445C24.0981 19.9824 23.3383 19.6133 22.318 19.6133C21.5474 19.6133 20.8853 19.9281 20.4945 20.4708C20.1038 21.0135 20.0169 21.7408 20.2557 22.468C20.7225 23.8791 21.5365 24.1938 21.9816 24.2481C22.0467 24.259 22.1118 24.259 22.1878 24.259C22.6654 24.259 23.4035 24.0527 24.1199 22.9782C24.6951 22.1424 24.8037 21.3066 24.4563 20.6445Z" fill="white"/>
</g>
</svg>
