<svg width="36" height="36" viewBox="0 0 36 36" fill="none" xmlns="http://www.w3.org/2000/svg">
<path d="M3.62842 21.0899C3.62842 15.632 3.62842 12.903 5.32396 11.2075C7.01953 9.51192 9.74846 9.51192 15.2064 9.51192H20.9953C26.4532 9.51192 29.1822 9.51192 30.8777 11.2075C32.5733 12.903 32.5733 15.632 32.5733 21.0899C32.5733 26.5477 32.5733 29.2768 30.8777 30.9722C29.1822 32.6678 26.4532 32.6678 20.9953 32.6678H15.2064C9.74846 32.6678 7.01953 32.6678 5.32396 30.9722C3.62842 29.2768 3.62842 26.5477 3.62842 21.0899Z" fill="white" stroke="white" stroke-width="1.30252" stroke-linecap="round"/>
<path d="M13.759 5.1702L18.1008 9.51193L23.8897 3.72295" stroke="white" stroke-width="1.30252" stroke-linecap="round" stroke-linejoin="round"/>
</svg>
